<?xml version="1.0" encoding="utf-8"?>
<!-- Generator: Adobe Illustrator 21.0.2, SVG Export Plug-In . SVG Version: 6.00 Build 0)  -->
<svg version="1.1" id="key" xmlns="http://www.w3.org/2000/svg" xmlns:xlink="http://www.w3.org/1999/xlink" x="0px" y="0px"
	 viewBox="0 0 24 24" style="enable-background:new 0 0 24 24;" xml:space="preserve">
<style type="text/css">
	.st0{fill:none;}
</style>
<path d="M8.5,2.3c-2.9,0-5.2,2.3-5.2,5.2s2.3,5.2,5.2,5.2c1.1,0,2.1-0.3,2.9-0.9l2.9,2.9l-2,2l1.5,1.5l2-2l0.9,0.9l-2.9,3l1.5,1.5
	l2.9-3l1,1l1.5-1.5l-7.9-7.9c0.5-0.8,0.9-1.8,0.9-2.9C13.7,4.6,11.4,2.3,8.5,2.3z M5.4,7.5c0-1.7,1.4-3.1,3.1-3.1s3.1,1.4,3.1,3.1
	s-1.4,3.1-3.1,3.1S5.4,9.3,5.4,7.5z"/>
<rect y="0.1" class="st0" width="24" height="23.8"/>
</svg>
