<?xml version="1.0" encoding="utf-8"?>
<!-- Generator: Adobe Illustrator 24.1.0, SVG Export Plug-In . SVG Version: 6.00 Build 0)  -->
<svg version="1.1" id="Layer_1" xmlns="http://www.w3.org/2000/svg" xmlns:xlink="http://www.w3.org/1999/xlink" x="0px" y="0px"
	 viewBox="0 0 24 24" style="enable-background:new 0 0 24 24;" xml:space="preserve">
<path d="M22.2-25.5h-3.8v7.2h3.8V-25.5z M10-38.6c-0.4-0.3-0.4-0.8-0.1-1.2c0.2-0.3,0.7-0.4,1-0.2l11.8,7.7l-0.3-1.5
	c-0.1-0.5,0.2-0.9,0.6-1c0.5-0.1,0.9,0.2,1,0.6l0,0l0.7,3.4c0.1,0.2,0,0.5-0.1,0.7c-0.1,0.2-0.3,0.3-0.6,0.4l-3.4,0.7
	c-0.5,0.1-0.9-0.2-1-0.7c-0.1-0.4,0.2-0.9,0.6-1c0,0,0,0,0,0l1.5-0.3L10-38.6z M11.3-32.7H7.5v14.4h3.8
	C11.3-18.3,11.3-32.7,11.3-32.7z M6.7-34.3h5.5c0.5,0,0.8,0.4,0.8,0.8c0,0,0,0,0,0v2.7h4.6c0.5,0,0.8,0.4,0.8,0.8l0,0v2.7h4.6
	c0.5,0,0.8,0.4,0.8,0.8l0,0v8.9c0,0.5-0.4,0.8-0.8,0.8l0,0H6.7c-0.5,0-0.8-0.4-0.8-0.8l0,0v-16C5.8-34,6.2-34.3,6.7-34.3L6.7-34.3z
	 M16.8-29.1H13v10.8h3.8V-29.1z"/>
<g>
	<g>
		<path d="M2.8,5.8h2.1c0.1,1.1,1,1.9,2.1,1.9h3.7c1.1,0,2-0.8,2.1-1.9h8.3C21.6,5.8,22,5.4,22,5s-0.4-0.9-0.9-0.9h-8.3
			c-0.1-1.1-1-1.9-2.1-1.9H7.1C6,2.2,5.1,3,5,4.1H2.8C2.4,4.1,2,4.5,2,5S2.4,5.8,2.8,5.8z M6.7,4.3c0-0.2,0.2-0.4,0.4-0.4h3.7
			c0.2,0,0.4,0.2,0.4,0.4v1.3C11.1,5.8,11,6,10.8,6H7.1C6.9,6,6.7,5.8,6.7,5.6V4.3z"/>
		<path d="M21.2,11.1h-2.1C19,10,18,9.2,16.9,9.2h-3.7c-1.1,0-2,0.8-2.1,1.9H2.9C2.4,11.1,2,11.5,2,12c0,0.5,0.4,0.9,0.9,0.9h8.3
			c0.1,1.1,1,1.9,2.1,1.9h3.7c1.1,0,2-0.8,2.1-1.9h2.1c0.5,0,0.9-0.4,0.9-0.9C22.1,11.5,21.7,11.1,21.2,11.1z M17.3,12.6
			c0,0.2-0.2,0.4-0.4,0.4h-3.7c-0.2,0-0.4-0.2-0.4-0.4v-1.3c0-0.2,0.2-0.4,0.4-0.4h3.7c0.2,0,0.4,0.2,0.4,0.4V12.6z"/>
		<path d="M21.2,18.1h-8.3c-0.1-1.1-1-1.9-2.1-1.9H7.1c-1.1,0-2,0.8-2.1,1.9H2.8C2.4,18.1,2,18.5,2,19s0.4,0.9,0.9,0.9h2.1
			c0.1,1.1,1,1.9,2.1,1.9h3.7c1.1,0,2-0.8,2.1-1.9h8.3c0.5,0,0.9-0.4,0.9-0.9S21.7,18.1,21.2,18.1z M11.1,19.7
			c0,0.2-0.2,0.4-0.4,0.4H7.1c-0.2,0-0.4-0.2-0.4-0.4v-1.3c0-0.2,0.2-0.4,0.4-0.4h3.7c0.2,0,0.4,0.2,0.4,0.4
			C11.1,18.4,11.1,19.7,11.1,19.7z"/>
	</g>
</g>
<g>
	<path d="M49.7-32.9l3.4-3.4h1.8c0.3,1,1.4,1.7,2.5,1.4c1.1-0.3,1.8-1.4,1.5-2.5c-0.3-1.1-1.4-1.8-2.5-1.5c-0.7,0.2-1.3,0.8-1.5,1.4
		h-2.2l-3,3.1 M49.7-28.1h4.7c0.3,1.1,1.4,1.8,2.5,1.5c1.1-0.3,1.8-1.4,1.5-2.5c-0.3-1.1-1.4-1.8-2.5-1.5c-0.7,0.2-1.3,0.8-1.5,1.3
		h-4.7 M49.7-23.3l2.6,2.7h2.1c0.3,1,1.4,1.7,2.5,1.4c1.1-0.3,1.8-1.4,1.5-2.5c-0.3-1.1-1.4-1.8-2.5-1.5c-0.7,0.2-1.3,0.8-1.5,1.5
		h-1.6l-3.1-3 M56.4-29.6c0.6,0,1,0.5,1,1c0,0.6-0.5,1-1,1c-0.6,0-1-0.5-1-1C55.4-29.2,55.8-29.6,56.4-29.6z M56.9-37.8
		c0.6,0,1,0.5,1,1c0,0.6-0.5,1-1,1c-0.6,0-1-0.5-1-1S56.3-37.8,56.9-37.8z M56.4-22.2c0.6,0,1,0.5,1,1c0,0.6-0.5,1-1,1
		c-0.6,0-1-0.5-1-1C55.4-21.8,55.8-22.2,56.4-22.2z"/>
	<path d="M49.2-38.5H38.3c-0.6,0-1.1,0.5-1.1,1.1v15.6h0v1.9c0,0.6,0.5,1.1,1.1,1.1l10.8,0c0.6,0,1.1-0.5,1.1-1.1v-4.4v-13.1
		C50.3-38,49.8-38.5,49.2-38.5z M48.2-20.6h-9v-16.2h9V-20.6z"/>
	<rect x="40.7" y="-29.2" width="6.1" height="1.2"/>
	<rect x="40.7" y="-26.5" width="6.1" height="1.2"/>
	<rect x="40.7" y="-23.8" width="6.1" height="1.2"/>
	<rect x="40.7" y="-34.6" width="6.1" height="1.2"/>
	<rect x="40.7" y="-31.9" width="6.1" height="1.2"/>
</g>
</svg>
