<?xml version="1.0" encoding="utf-8"?>
<!-- Generator: Adobe Illustrator 21.0.2, SVG Export Plug-In . SVG Version: 6.00 Build 0)  -->
<svg version="1.1" id="Layer_1" xmlns="http://www.w3.org/2000/svg" xmlns:xlink="http://www.w3.org/1999/xlink" x="0px" y="0px"
	 viewBox="0 0 32 32" style="enable-background:new 0 0 32 32;" xml:space="preserve">
<style type="text/css">
	.st0{fill:none;}
</style>
<g>
	<path d="M6,8c0-1.1,0.9-2,2-2h16c1.1,0,2,0.9,2,2v2c0,1.1-0.9,2-2,2H8c-1.1,0-2-0.9-2-2V8z M8,8v2h16V8H8z"/>
	<path d="M8,13c-1.1,0-2,0.9-2,2v2c0,1.1,0.9,2,2,2h16c1.1,0,2-0.9,2-2v-2c0-1.1-0.9-2-2-2H8z M24,15v2H8v-2H24z"/>
	<path d="M8,20c-1.1,0-2,0.9-2,2v2c0,1.1,0.9,2,2,2h16c1.1,0,2-0.9,2-2v-2c0-1.1-0.9-2-2-2H8z M24,22v2H8v-2H24z"/>
</g>
<rect class="st0" width="32" height="32"/>
</svg>
