<?xml version="1.0" encoding="utf-8"?>
<!-- Generator: Adobe Illustrator 24.1.0, SVG Export Plug-In . SVG Version: 6.00 Build 0)  -->
<svg version="1.1" id="Layer_1" xmlns="http://www.w3.org/2000/svg" xmlns:xlink="http://www.w3.org/1999/xlink" x="0px" y="0px"
	 viewBox="0 0 24 24" style="enable-background:new 0 0 24 24;" xml:space="preserve">
<style type="text/css">
	.st0{fill:#FFFFFF;}
</style>
<path d="M19.1,14.9h-3.8v7.2h3.8V14.9z M6.9,1.9C6.6,1.6,6.6,1.1,6.9,0.7c0.2-0.3,0.7-0.4,1-0.2l11.8,7.7l-0.3-1.5
	c-0.1-0.5,0.2-0.9,0.6-1c0.5-0.1,0.9,0.2,1,0.6l0,0l0.7,3.4c0.1,0.2,0,0.5-0.1,0.7c-0.1,0.2-0.3,0.3-0.6,0.4l-3.4,0.7
	c-0.5,0.1-0.9-0.2-1-0.7c-0.1-0.4,0.2-0.9,0.6-1c0,0,0,0,0,0l1.5-0.3L6.9,1.9z M8.2,7.8H4.4v14.4h3.8C8.2,22.2,8.2,7.8,8.2,7.8z
	 M3.6,6.1h5.5c0.5,0,0.8,0.4,0.8,0.8c0,0,0,0,0,0v2.7h4.6c0.5,0,0.8,0.4,0.8,0.8l0,0v2.7H20c0.5,0,0.8,0.4,0.8,0.8l0,0V23
	c0,0.5-0.4,0.8-0.8,0.8l0,0H3.6c-0.5,0-0.8-0.4-0.8-0.8l0,0V7C2.7,6.5,3.1,6.1,3.6,6.1L3.6,6.1z M13.7,11.4H9.9v10.8h3.8V11.4z"/>
<path d="M48.9,9.8l3.4-3.4h1.8c0.3,1,1.4,1.7,2.5,1.4c1.1-0.3,1.8-1.4,1.5-2.5c-0.3-1.1-1.4-1.8-2.5-1.5c-0.7,0.2-1.3,0.8-1.5,1.4
	h-2.2l-3,3.1 M48.9,14.6h4.7c0.3,1.1,1.4,1.8,2.5,1.5c1.1-0.3,1.8-1.4,1.5-2.5c-0.3-1.1-1.4-1.8-2.5-1.5c-0.7,0.2-1.3,0.8-1.5,1.3
	h-4.7 M48.9,19.3l2.6,2.7h2.1c0.3,1,1.4,1.7,2.5,1.4c1.1-0.3,1.8-1.4,1.5-2.5c-0.3-1.1-1.4-1.8-2.5-1.5c-0.7,0.2-1.3,0.8-1.5,1.5
	h-1.6l-3.1-3 M55.6,13c0.6,0,1,0.5,1,1c0,0.6-0.5,1-1,1c-0.6,0-1-0.5-1-1C54.6,13.5,55,13,55.6,13z M56.1,4.8c0.6,0,1,0.5,1,1
	c0,0.6-0.5,1-1,1c-0.6,0-1-0.5-1-1S55.5,4.8,56.1,4.8z M55.6,20.4c0.6,0,1,0.5,1,1c0,0.6-0.5,1-1,1c-0.6,0-1-0.5-1-1
	C54.6,20.9,55,20.4,55.6,20.4z"/>
<path d="M49.5,18.3V5.2c0-0.6-0.5-1.1-1.1-1.1H37.5c-0.6,0-1.1,0.5-1.1,1.1v15.6h0v1.9c0,0.6,0.5,1.1,1.1,1.1l10.8,0
	c0.6,0,1.1-0.5,1.1-1.1L49.5,18.3z"/>
<rect x="38.5" y="5.9" class="st0" width="9" height="16.2"/>
<rect x="39.9" y="13.5" width="6.1" height="1.2"/>
<rect x="39.9" y="16.2" width="6.1" height="1.2"/>
<rect x="39.9" y="18.9" width="6.1" height="1.2"/>
<g>
	<g>
		<path d="M76.2,7.8h2.1c0.1,1.1,1,1.9,2.1,1.9h3.7c1.1,0,2-0.8,2.1-1.9h8.3c0.5,0,0.9-0.4,0.9-0.9S95,6,94.5,6h-8.3
			c-0.1-1.1-1-1.9-2.1-1.9h-3.6c-1.1,0-2,0.8-2.1,1.9h-2.1c-0.5,0-0.9,0.4-0.9,0.9S75.8,7.8,76.2,7.8z M80.1,6.3
			c0-0.2,0.2-0.4,0.4-0.4h3.7c0.2,0,0.4,0.2,0.4,0.4v1.3c0,0.2-0.2,0.4-0.4,0.4h-3.7c-0.2,0-0.4-0.2-0.4-0.4V6.3z"/>
		<path d="M94.6,13.1h-2.1c-0.1-1.1-1-1.9-2.1-1.9h-3.7c-1.1,0-2,0.8-2.1,1.9h-8.3c-0.5,0-0.9,0.4-0.9,0.9s0.4,0.9,0.9,0.9h8.3
			c0.1,1.1,1,1.9,2.1,1.9h3.7c1.1,0,2-0.8,2.1-1.9h2.1c0.5,0,0.9-0.4,0.9-0.9C95.5,13.5,95.1,13.1,94.6,13.1z M90.7,14.6
			c0,0.2-0.2,0.4-0.4,0.4h-3.7c-0.2,0-0.4-0.2-0.4-0.4v-1.3c0-0.2,0.2-0.4,0.4-0.4h3.7c0.2,0,0.4,0.2,0.4,0.4V14.6z"/>
		<path d="M94.6,20.1h-8.3c-0.1-1.1-1-1.9-2.1-1.9h-3.7c-1.1,0-2,0.8-2.1,1.9h-2.1c-0.5,0-0.9,0.4-0.9,0.9s0.4,0.9,0.9,0.9h2.1
			c0.1,1.1,1,1.9,2.1,1.9h3.7c1.1,0,2-0.8,2.1-1.9h8.3c0.5,0,0.9-0.4,0.9-0.9S95.1,20.1,94.6,20.1z M84.5,21.6
			c0,0.2-0.2,0.4-0.4,0.4h-3.7c-0.2,0-0.4-0.2-0.4-0.4v-1.3c0-0.2,0.2-0.4,0.4-0.4h3.7c0.2,0,0.4,0.2,0.4,0.4
			C84.5,20.3,84.5,21.6,84.5,21.6z"/>
	</g>
</g>
<rect x="39.9" y="8.1" width="6.1" height="1.2"/>
<rect x="39.9" y="10.8" width="6.1" height="1.2"/>
</svg>
