<svg width="24" height="24" viewBox="0 0 24 24" fill="none" xmlns="http://www.w3.org/2000/svg">
<path d="M10.2402 6.90002V5.90002H12.2402V6.90002H12.5302C14.1773 6.90002 15.1802 8.37832 15.1802 9.90002C15.1802 10.422 15.0613 10.9378 14.8394 11.3907C15.581 11.9505 16.0002 12.9162 16.0002 13.9C16.0002 15.426 14.9837 16.9 13.3502 16.9H12.2402V17.9H10.2402V16.9H8.24023V6.90002H10.2402ZM13.1802 9.90002C13.1802 9.53053 13.065 9.26435 12.9351 9.10816C12.8105 8.95832 12.6705 8.90002 12.5302 8.90002H10.2402V10.9H12.5302C12.7367 10.9 13.1802 10.6741 13.1802 9.90002ZM10.2402 14.9H13.3502C13.5567 14.9 14.0002 14.6741 14.0002 13.9C14.0002 13.5305 13.885 13.2644 13.7551 13.1082C13.6305 12.9583 13.4905 12.9 13.3502 12.9H10.2402V14.9Z" fill="#242424"/>
<path d="M1.8846 7.11887C2.22239 7.46006 2.59017 7.66916 2.9244 7.79729C2.33118 9.07522 2 10.4992 2 12C2 17.52 6.48 22 12 22C17.52 22 22 17.52 22 12C22 10.5001 21.6692 9.07702 21.0767 7.79971C22.1998 7.36545 23 6.27314 23 5C23 3.34772 21.6523 2 20 2H4C2.34772 2 1 3.34772 1 5C1 5.81827 1.32761 6.57278 1.8846 7.11887ZM4 4H6.00137C5.24407 4.56892 4.57007 5.24281 4.00103 6H4C3.93806 6 3.58039 5.99109 3.30323 5.70907L3.28735 5.69327C3.10924 5.51997 3 5.2778 3 5C3 4.45228 3.45228 4 4 4ZM20 6H19.999C19.4299 5.24281 18.7559 4.56892 17.9986 4H20C20.5477 4 21 4.45228 21 5C21 5.54772 20.5477 6 20 6ZM4 12C4 7.59 7.59 4 12 4C16.41 4 20 7.59 20 12C20 16.41 16.41 20 12 20C7.59 20 4 16.41 4 12Z" fill="#242424"/>
</svg>
