<svg width="24" height="24" viewBox="0 0 24 24" fill="none" xmlns="http://www.w3.org/2000/svg">
<path d="M14 8.58582L15.293 7.29285L16.7072 8.70706L13.0001 12.4142L9.29297 8.70706L10.7072 7.29285L12 8.58566V3H14V8.58582Z" fill="#242424"/>
<path d="M4.51 6H3V4H4.51C5.84745 4 6.99998 4.87465 7.38626 6.1375L7.38803 6.14326L9.52645 13.2881C9.65989 13.7136 10.0463 14 10.49 14H15.62C16.0326 14 16.4085 13.7394 16.5527 13.3515L16.5536 13.3492L19.0636 6.64918L20.9364 7.35082L18.4273 14.0485L18.4268 14.0499C17.9906 15.2212 16.8669 16 15.62 16H10.49C9.15498 16 8.00237 15.1281 7.61471 13.8757L7.61195 13.8667L5.473 6.72009C5.33859 6.28431 4.95174 6 4.51 6Z" fill="#242424"/>
<path d="M16.5 20C17.3284 20 18 19.3284 18 18.5C18 17.6716 17.3284 17 16.5 17C15.6716 17 15 17.6716 15 18.5C15 19.3284 15.6716 20 16.5 20Z" fill="#242424"/>
<path d="M11 18.5C11 19.3284 10.3284 20 9.5 20C8.67157 20 8 19.3284 8 18.5C8 17.6716 8.67157 17 9.5 17C10.3284 17 11 17.6716 11 18.5Z" fill="#242424"/>
</svg>
