<svg width="24" height="24" viewBox="0 0 24 24" fill="none" xmlns="http://www.w3.org/2000/svg">
<path d="M16 6V4H18V6C19.8527 6.00024 20.9996 7.6777 20.9996 9.5C20.9996 10.1986 20.8311 10.8759 20.5188 11.4456C21.459 12.0637 22.0007 13.2477 22.0007 14.5C22.0007 16.3224 20.8536 18 19.0007 18H18V19.98H16V18H12.9805L13.0996 12.043V6H16ZM15.0996 11H17.9996C18.3867 11 18.9996 10.6176 18.9996 9.5C18.9996 8.38243 18.3867 8 17.9996 8H15.0996V11ZM15.0809 13L15.0209 16H19.0007C19.3878 16 20.0007 15.6176 20.0007 14.5C20.0007 13.3824 19.3878 13 19.0007 13H15.0809Z" fill="#242424"/>
<path d="M6.94726 5.46707L5.53304 4.05286L1.58594 7.99996L5.53304 11.9471L6.94726 10.5329L5.4144 9H11V7H5.41433L6.94726 5.46707Z" fill="#242424"/>
<path d="M7.46695 12.0529L11.4141 16L7.46695 19.9471L6.05273 18.5329L7.58559 17H2V15H7.58566L6.05273 13.4671L7.46695 12.0529Z" fill="#242424"/>
</svg>
