<?xml version="1.0" encoding="utf-8"?>
<!-- Generator: Adobe Illustrator 21.0.2, SVG Export Plug-In . SVG Version: 6.00 Build 0)  -->
<svg version="1.1" xmlns="http://www.w3.org/2000/svg" xmlns:xlink="http://www.w3.org/1999/xlink" x="0px" y="0px"
	 viewBox="0 0 24 24" style="enable-background:new 0 0 24 24;" xml:space="preserve">
<style type="text/css">
	.st0{fill:none;}
	.st1{display:none;}
	.st2{display:inline;}
	.st3{display:inline;fill:none;}
</style>
<g id="frame">
	<rect class="st0" width="24" height="24"/>
</g>
<g id="key" class="st1">
	<path class="st2" d="M8.3,2.1c-2.9,0-5.2,2.3-5.2,5.2s2.3,5.2,5.2,5.2c1.1,0,2.1-0.3,2.9-0.9l2.9,2.9l-2,2l1.5,1.5l2-2l0.9,0.9
		l-2.9,3l1.5,1.5l2.9-3l1,1l1.5-1.5l-7.9-7.9c0.5-0.8,0.9-1.8,0.9-2.9C13.5,4.5,11.2,2.1,8.3,2.1z M5.2,7.4c0-1.7,1.4-3.1,3.1-3.1
		s3.1,1.4,3.1,3.1s-1.4,3.1-3.1,3.1S5.2,9.1,5.2,7.4z"/>
	<rect x="-0.2" y="-0.1" class="st3" width="24" height="23.8"/>
</g>
<g id="bet">
	<path d="M8.5,9.2L11,6.5v6h2v-6l2.5,2.7L17,7.8l-4.3-4.5L12,2.5l-0.7,0.8L7,7.8L8.5,9.2z M7.4,10.8C6.4,11.3,6,12,6,12.4
		c0,0.3,0.3,0.8,1.4,1.3c1.1,0.4,2.7,0.7,4.6,0.7s3.5-0.3,4.6-0.7c1.2-0.5,1.4-1,1.4-1.3c0-0.4-0.4-1.1-1.4-1.6L17.4,9
		c1.4,0.7,2.6,1.9,2.6,3.4c0,0.1,0,0.3,0,0.4h0v3.5c0,1.6-1.3,2.6-2.7,3.2c-1.4,0.6-3.3,0.9-5.3,0.9c-2,0-3.9-0.3-5.3-0.9
		C5.3,19,4,18,4,16.4v-3.5h0c0-0.1,0-0.3,0-0.4C4,10.9,5.2,9.7,6.6,9L7.4,10.8z M17.3,15.6c0.2-0.1,0.5-0.2,0.7-0.3v1.1
		c0,0.3-0.3,0.9-1.4,1.4c-1.1,0.5-2.7,0.7-4.6,0.7s-3.5-0.3-4.6-0.7c-1.2-0.5-1.4-1-1.4-1.4v-1.1c0.2,0.1,0.4,0.2,0.7,0.3
		c1.4,0.6,3.3,0.9,5.3,0.9C14,16.5,15.9,16.2,17.3,15.6z"/>
</g>
</svg>
