<?xml version="1.0" encoding="utf-8"?>
<!-- Generator: Adobe Illustrator 24.1.0, SVG Export Plug-In . SVG Version: 6.00 Build 0)  -->
<svg version="1.1" id="Layer_1" xmlns="http://www.w3.org/2000/svg" xmlns:xlink="http://www.w3.org/1999/xlink" x="0px" y="0px"
	 viewBox="0 0 24 24" style="enable-background:new 0 0 24 24;" xml:space="preserve">
<path d="M22.2-25.5h-3.8v7.2h3.8V-25.5z M10-38.6c-0.4-0.3-0.4-0.8-0.1-1.2c0.2-0.3,0.7-0.4,1-0.2l11.8,7.7l-0.3-1.5
	c-0.1-0.5,0.2-0.9,0.6-1c0.5-0.1,0.9,0.2,1,0.6l0,0l0.7,3.4c0.1,0.2,0,0.5-0.1,0.7c-0.1,0.2-0.3,0.3-0.6,0.4l-3.4,0.7
	c-0.5,0.1-0.9-0.2-1-0.7c-0.1-0.4,0.2-0.9,0.6-1c0,0,0,0,0,0l1.5-0.3L10-38.6z M11.3-32.7H7.5v14.4h3.8
	C11.3-18.3,11.3-32.7,11.3-32.7z M6.7-34.3h5.5c0.5,0,0.8,0.4,0.8,0.8c0,0,0,0,0,0v2.7h4.6c0.5,0,0.8,0.4,0.8,0.8l0,0v2.7h4.6
	c0.5,0,0.8,0.4,0.8,0.8l0,0v8.9c0,0.5-0.4,0.8-0.8,0.8l0,0H6.7c-0.5,0-0.8-0.4-0.8-0.8l0,0v-16C5.8-34,6.2-34.3,6.7-34.3L6.7-34.3z
	 M16.8-29.1H13v10.8h3.8V-29.1z"/>
<g>
	<g>
		<path d="M76.2,7.8h2.1c0.1,1.1,1,1.9,2.1,1.9h3.7c1.1,0,2-0.8,2.1-1.9h8.3c0.5,0,0.9-0.4,0.9-0.9S95,6,94.5,6h-8.3
			c-0.1-1.1-1-1.9-2.1-1.9h-3.6c-1.1,0-2,0.8-2.1,1.9h-2.1c-0.5,0-0.9,0.4-0.9,0.9S75.8,7.8,76.2,7.8z M80.1,6.3
			c0-0.2,0.2-0.4,0.4-0.4h3.7c0.2,0,0.4,0.2,0.4,0.4v1.3c0,0.2-0.2,0.4-0.4,0.4h-3.7c-0.2,0-0.4-0.2-0.4-0.4V6.3z"/>
		<path d="M94.6,13.1h-2.1c-0.1-1.1-1-1.9-2.1-1.9h-3.7c-1.1,0-2,0.8-2.1,1.9h-8.3c-0.5,0-0.9,0.4-0.9,0.9s0.4,0.9,0.9,0.9h8.3
			c0.1,1.1,1,1.9,2.1,1.9h3.7c1.1,0,2-0.8,2.1-1.9h2.1c0.5,0,0.9-0.4,0.9-0.9C95.5,13.5,95.1,13.1,94.6,13.1z M90.7,14.6
			c0,0.2-0.2,0.4-0.4,0.4h-3.7c-0.2,0-0.4-0.2-0.4-0.4v-1.3c0-0.2,0.2-0.4,0.4-0.4h3.7c0.2,0,0.4,0.2,0.4,0.4V14.6z"/>
		<path d="M94.6,20.1h-8.3c-0.1-1.1-1-1.9-2.1-1.9h-3.7c-1.1,0-2,0.8-2.1,1.9h-2.1c-0.5,0-0.9,0.4-0.9,0.9s0.4,0.9,0.9,0.9h2.1
			c0.1,1.1,1,1.9,2.1,1.9h3.7c1.1,0,2-0.8,2.1-1.9h8.3c0.5,0,0.9-0.4,0.9-0.9S95.1,20.1,94.6,20.1z M84.5,21.6
			c0,0.2-0.2,0.4-0.4,0.4h-3.7c-0.2,0-0.4-0.2-0.4-0.4v-1.3c0-0.2,0.2-0.4,0.4-0.4h3.7c0.2,0,0.4,0.2,0.4,0.4
			C84.5,20.3,84.5,21.6,84.5,21.6z"/>
	</g>
</g>
<g>
	<path d="M13.6,8L17,4.7h1.8c0.3,1,1.4,1.7,2.5,1.4c1.1-0.3,1.8-1.4,1.5-2.5c-0.3-1.1-1.4-1.8-2.5-1.5c-0.7,0.2-1.3,0.8-1.5,1.4
		h-2.2l-3,3.1 M13.6,12.8h4.7c0.3,1.1,1.4,1.8,2.5,1.5c1.1-0.3,1.8-1.4,1.5-2.5c-0.3-1.1-1.4-1.8-2.5-1.5c-0.7,0.2-1.3,0.8-1.5,1.3
		h-4.7 M13.6,17.5l2.6,2.7h2.1c0.3,1,1.4,1.7,2.5,1.4c1.1-0.3,1.8-1.4,1.5-2.5s-1.4-1.8-2.5-1.5c-0.7,0.2-1.3,0.8-1.5,1.5h-1.6
		l-3.1-3 M20.3,11.2c0.6,0,1,0.5,1,1c0,0.6-0.5,1-1,1s-1-0.5-1-1C19.2,11.7,19.7,11.2,20.3,11.2z M20.8,3c0.6,0,1,0.5,1,1
		c0,0.6-0.5,1-1,1c-0.6,0-1-0.5-1-1C19.8,3.5,20.2,3,20.8,3z M20.3,18.6c0.6,0,1,0.5,1,1c0,0.6-0.5,1-1,1s-1-0.5-1-1
		C19.2,19.1,19.7,18.6,20.3,18.6z"/>
	<path d="M13.1,2.3H2.2c-0.6,0-1.1,0.5-1.1,1.1V19h0v1.9c0,0.6,0.5,1.1,1.1,1.1l10.8,0c0.6,0,1.1-0.5,1.1-1.1v-4.4V3.4
		C14.1,2.8,13.7,2.3,13.1,2.3z M12.1,20.3h-9V4.1h9V20.3z"/>
	<rect x="4.6" y="11.7" width="6.1" height="1.2"/>
	<rect x="4.6" y="14.4" width="6.1" height="1.2"/>
	<rect x="4.6" y="17.1" width="6.1" height="1.2"/>
	<rect x="4.6" y="6.3" width="6.1" height="1.2"/>
	<rect x="4.6" y="9" width="6.1" height="1.2"/>
</g>
</svg>
