<svg width="20" height="17" viewBox="0 0 20 17" fill="none" xmlns="http://www.w3.org/2000/svg">
<path d="M16 11C16.5523 11 17 10.5523 17 10C17 9.44771 16.5523 9 16 9C15.4477 9 15 9.44771 15 10C15 10.5523 15.4477 11 16 11Z" fill="black"/>
<path d="M2 0C0.89543 0 0 0.895431 0 2V15C0 16.1 0.9 17 2 17H18C19.1 17 20 16.1 20 15V5C20 3.9 19.1 3 18 3V2C18 0.89543 17.1046 0 16 0H2ZM16 3H2V2H16V3ZM2 5H18V6H14C12.9 6 12 6.9 12 8V12C12 13.1 12.9 14 14 14H18V15H2V5ZM14 12V8H18V12H14Z" fill="black"/>
<path d="M6.25 10.75V13H7.75V10.75H10V9.25H7.75V7H6.25V9.25H4V10.75H6.25Z" fill="black"/>
</svg>
