<svg width="24" height="24" viewBox="0 0 24 24" fill="none" xmlns="http://www.w3.org/2000/svg">
<path d="M17.6699 7.31006C17.6699 8.13849 16.9983 8.81006 16.1699 8.81006C15.3415 8.81006 14.6699 8.13849 14.6699 7.31006C14.6699 6.48163 15.3415 5.81006 16.1699 5.81006C16.9983 5.81006 17.6699 6.48163 17.6699 7.31006Z" fill="#242424"/>
<path d="M14.0109 16.46L12.8321 15.283C11.9321 16.3113 10.2818 17.79 8.19958 17.79C7.73958 17.79 7.24958 17.72 6.74958 17.55L6.27958 17.4L6.11958 16.93C5.20389 14.1688 7.13002 11.9467 8.38928 10.8467L7.21094 9.67005L7.64094 8.99005C7.68543 8.92128 7.93484 8.53635 8.36253 7.98539L5.35938 4.99005L6.63937 4.38005C7.47627 3.9846 11.4595 2.22743 13.6186 3.47222C15.4818 2.54848 17.6899 2.11959 20.1109 2.93005L20.5809 3.09005L20.7409 3.56005C21.5474 5.97955 21.1185 8.18642 20.1961 10.0488C21.4431 12.2075 19.685 16.1929 19.2894 17.03L18.6894 18.31L15.6864 15.3071C15.1351 15.7356 14.7498 15.9855 14.6809 16.03L14.0109 16.46ZM17.1991 13.9998L18.0294 14.83C18.3141 14.0102 18.5241 13.176 18.6062 12.481C18.1434 13.0478 17.661 13.5564 17.1991 13.9998ZM11.1811 5.06838C10.4911 5.1502 9.66429 5.35703 8.84937 5.64005L9.6749 6.46558C10.1151 6.0068 10.6194 5.52804 11.1811 5.06838ZM9.79094 9.42005L14.2509 13.88C15.9009 12.63 20.0409 8.99005 18.9909 4.68005C14.6709 3.63005 11.0409 7.77005 9.79094 9.42005ZM7.90958 15.77C9.40958 15.94 10.7396 14.67 11.4096 13.87L9.80958 12.27C9.00958 12.94 7.73958 14.26 7.90958 15.77Z" fill="#242424"/>
<path d="M10.3166 18.0213L8.19531 20.1426L9.60951 21.5568L11.7308 19.4355L10.3166 18.0213Z" fill="#242424"/>
<path d="M1 14.7684L4.5355 11.2329L5.9497 12.6471L2.4142 16.1826L1 14.7684Z" fill="#242424"/>
</svg>
