<svg width="24" height="24" viewBox="0 0 24 24" fill="none" xmlns="http://www.w3.org/2000/svg">
<path fill-rule="evenodd" clip-rule="evenodd" d="M8.50117 6.18813C5.91054 6.85252 4 9.19996 4 12C4 14.8 5.91054 17.1475 8.50117 17.8119C6.96069 16.3539 6 14.2897 6 12C6 9.71034 6.96069 7.64608 8.50117 6.18813ZM11.9915 19.746L11.9925 19.7501C11.3599 19.9083 10.6884 20 10 20C5.57772 20 2 16.4223 2 12C2 7.57772 5.57772 4 10 4C10.6884 4 11.3599 4.0917 11.9925 4.24986L11.9915 4.25397C12.6333 4.08819 13.3063 4 14 4C18.42 4 22 7.58 22 12C22 16.42 18.42 20 14 20C13.3063 20 12.6333 19.9118 11.9915 19.746ZM20 12C20 8.69 17.31 6 14 6C10.69 6 8 8.69 8 12C8 15.31 10.69 18 14 18C17.31 18 20 15.31 20 12ZM13.4671 7.05289L17.7071 11.2929L18.4142 12L17.7071 12.7071L13.4671 16.9471L12.0529 15.5329L14.5858 13H10V11H14.5858L12.0529 8.46711L13.4671 7.05289Z" fill="#242424"/>
</svg>
